<svg width="771" height="216" viewBox="0 0 771 216" fill="none" xmlns="http://www.w3.org/2000/svg">
<path d="M144 216L72 168L0 216V0H144V216ZM35.2803 77.2646V89.46H59.7598V138.24H84.2402V89.46H108.72V77.2646L72 40.6797L35.2803 77.2646Z" fill="#C65E3B"/>
<path d="M237.888 155.536C230.805 155.536 224.277 154.427 218.304 152.208C212.416 149.904 207.253 146.661 202.816 142.48C198.464 138.299 195.051 133.392 192.576 127.76C190.187 122.128 188.992 115.941 188.992 109.2C188.992 102.459 190.187 96.272 192.576 90.64C195.051 85.008 198.507 80.1013 202.944 75.92C207.381 71.7387 212.587 68.5387 218.56 66.32C224.533 64.016 231.104 62.864 238.272 62.864C246.208 62.864 253.333 64.1867 259.648 66.832C266.048 69.4773 271.424 73.3173 275.776 78.352L262.464 90.64C259.221 87.2267 255.68 84.7093 251.84 83.088C248 81.3813 243.819 80.528 239.296 80.528C234.944 80.528 230.976 81.2107 227.392 82.576C223.808 83.9413 220.693 85.904 218.048 88.464C215.488 91.024 213.483 94.0533 212.032 97.552C210.667 101.051 209.984 104.933 209.984 109.2C209.984 113.381 210.667 117.221 212.032 120.72C213.483 124.219 215.488 127.291 218.048 129.936C220.693 132.496 223.765 134.459 227.264 135.824C230.848 137.189 234.773 137.872 239.04 137.872C243.136 137.872 247.104 137.232 250.944 135.952C254.869 134.587 258.667 132.325 262.336 129.168L274.112 144.144C269.248 147.813 263.573 150.629 257.088 152.592C250.688 154.555 244.288 155.536 237.888 155.536ZM274.112 144.144L255.168 141.456V107.792H274.112V144.144ZM291.966 154V85.136H311.038V104.592L308.35 98.96C310.398 94.096 313.683 90.4267 318.206 87.952C322.729 85.392 328.233 84.112 334.718 84.112V102.544C333.865 102.459 333.097 102.416 332.414 102.416C331.731 102.331 331.006 102.288 330.238 102.288C324.777 102.288 320.339 103.867 316.926 107.024C313.598 110.096 311.934 114.917 311.934 121.488V154H291.966ZM384.331 154V140.56L383.051 137.616V113.552C383.051 109.285 381.728 105.957 379.083 103.568C376.523 101.179 372.555 99.984 367.179 99.984C363.51 99.984 359.883 100.581 356.299 101.776C352.8 102.885 349.814 104.421 347.339 106.384L340.171 92.432C343.926 89.7867 348.448 87.7387 353.739 86.288C359.03 84.8373 364.406 84.112 369.867 84.112C380.363 84.112 388.512 86.5867 394.315 91.536C400.118 96.4853 403.019 104.208 403.019 114.704V154H384.331ZM363.339 155.024C357.963 155.024 353.355 154.128 349.515 152.336C345.675 150.459 342.731 147.941 340.683 144.784C338.635 141.627 337.611 138.085 337.611 134.16C337.611 130.064 338.592 126.48 340.555 123.408C342.603 120.336 345.803 117.947 350.155 116.24C354.507 114.448 360.182 113.552 367.179 113.552H385.483V125.2H369.355C364.662 125.2 361.419 125.968 359.627 127.504C357.92 129.04 357.067 130.96 357.067 133.264C357.067 135.824 358.048 137.872 360.011 139.408C362.059 140.859 364.832 141.584 368.331 141.584C371.659 141.584 374.646 140.816 377.291 139.28C379.936 137.659 381.856 135.312 383.051 132.24L386.123 141.456C384.672 145.893 382.027 149.264 378.187 151.568C374.347 153.872 369.398 155.024 363.339 155.024ZM451.159 155.024C444.674 155.024 438.828 153.573 433.623 150.672C428.418 147.685 424.279 143.547 421.207 138.256C418.22 132.965 416.727 126.736 416.727 119.568C416.727 112.315 418.22 106.043 421.207 100.752C424.279 95.4613 428.418 91.3653 433.623 88.464C438.828 85.5627 444.674 84.112 451.159 84.112C456.962 84.112 462.039 85.392 466.391 87.952C470.743 90.512 474.114 94.3947 476.503 99.6C478.892 104.805 480.087 111.461 480.087 119.568C480.087 127.589 478.935 134.245 476.631 139.536C474.327 144.741 470.999 148.624 466.647 151.184C462.38 153.744 457.218 155.024 451.159 155.024ZM454.615 138.64C457.858 138.64 460.802 137.872 463.447 136.336C466.092 134.8 468.183 132.624 469.719 129.808C471.34 126.907 472.151 123.493 472.151 119.568C472.151 115.557 471.34 112.144 469.719 109.328C468.183 106.512 466.092 104.336 463.447 102.8C460.802 101.264 457.858 100.496 454.615 100.496C451.287 100.496 448.3 101.264 445.655 102.8C443.01 104.336 440.876 106.512 439.255 109.328C437.719 112.144 436.951 115.557 436.951 119.568C436.951 123.493 437.719 126.907 439.255 129.808C440.876 132.624 443.01 134.8 445.655 136.336C448.3 137.872 451.287 138.64 454.615 138.64ZM472.663 154V139.92L473.047 119.44L471.767 99.088V59.024H491.735V154H472.663ZM544.392 155.024C536.541 155.024 529.629 153.488 523.656 150.416C517.768 147.344 513.203 143.163 509.96 137.872C506.717 132.496 505.096 126.395 505.096 119.568C505.096 112.656 506.675 106.555 509.832 101.264C513.075 95.888 517.469 91.7067 523.016 88.72C528.563 85.648 534.835 84.112 541.832 84.112C548.573 84.112 554.632 85.5627 560.008 88.464C565.469 91.28 569.779 95.376 572.936 100.752C576.093 106.043 577.672 112.4 577.672 119.824C577.672 120.592 577.629 121.488 577.544 122.512C577.459 123.451 577.373 124.347 577.288 125.2H521.352V113.552H566.792L559.112 117.008C559.112 113.424 558.387 110.309 556.936 107.664C555.485 105.019 553.48 102.971 550.92 101.52C548.36 99.984 545.373 99.216 541.96 99.216C538.547 99.216 535.517 99.984 532.872 101.52C530.312 102.971 528.307 105.061 526.856 107.792C525.405 110.437 524.68 113.595 524.68 117.264V120.336C524.68 124.091 525.491 127.419 527.112 130.32C528.819 133.136 531.165 135.312 534.152 136.848C537.224 138.299 540.808 139.024 544.904 139.024C548.573 139.024 551.773 138.469 554.504 137.36C557.32 136.251 559.88 134.587 562.184 132.368L572.808 143.888C569.651 147.472 565.683 150.245 560.904 152.208C556.125 154.085 550.621 155.024 544.392 155.024ZM632.182 155.536C619.467 155.536 609.526 151.995 602.358 144.912C595.19 137.829 591.606 127.717 591.606 114.576V64.4H612.342V113.808C612.342 122.341 614.091 128.485 617.59 132.24C621.089 135.995 625.995 137.872 632.31 137.872C638.625 137.872 643.531 135.995 647.03 132.24C650.529 128.485 652.278 122.341 652.278 113.808V64.4H672.758V114.576C672.758 127.717 669.174 137.829 662.006 144.912C654.838 151.995 644.897 155.536 632.182 155.536ZM732.545 155.024C726.742 155.024 721.665 153.744 717.313 151.184C712.961 148.624 709.548 144.741 707.073 139.536C704.684 134.245 703.489 127.589 703.489 119.568C703.489 111.461 704.641 104.805 706.945 99.6C709.249 94.3947 712.577 90.512 716.929 87.952C721.281 85.392 726.486 84.112 732.545 84.112C739.03 84.112 744.833 85.6053 749.953 88.592C755.158 91.4933 759.254 95.5893 762.241 100.88C765.313 106.171 766.849 112.4 766.849 119.568C766.849 126.821 765.313 133.093 762.241 138.384C759.254 143.675 755.158 147.771 749.953 150.672C744.833 153.573 739.03 155.024 732.545 155.024ZM691.841 178.832V85.136H710.913V99.216L710.529 119.696L711.809 140.048V178.832H691.841ZM729.089 138.64C732.417 138.64 735.361 137.872 737.921 136.336C740.566 134.8 742.657 132.624 744.193 129.808C745.814 126.907 746.625 123.493 746.625 119.568C746.625 115.557 745.814 112.144 744.193 109.328C742.657 106.512 740.566 104.336 737.921 102.8C735.361 101.264 732.417 100.496 729.089 100.496C725.761 100.496 722.774 101.264 720.129 102.8C717.484 104.336 715.393 106.512 713.857 109.328C712.321 112.144 711.553 115.557 711.553 119.568C711.553 123.493 712.321 126.907 713.857 129.808C715.393 132.624 717.484 134.8 720.129 136.336C722.774 137.872 725.761 138.64 729.089 138.64Z" fill="#C65E3B"/>
</svg>
